<?xml version="1.0" encoding="UTF-8"?>
<svg version="1.1" viewBox="0 0 1600 2048" width="400" height="512" xmlns="http://www.w3.org/2000/svg">
<path transform="translate(792,8)" d="m0 0 4 5 5 8 8 15 12 22 34 68 12 22 10 19 9 3 5 1v1l-13-1-1 1 25 2 29 4 37 6 31 7 30 7 15 5 20 6 22 8 18 6 14 6 16 6 28 12 22 11 11 6 17 8 14 8 31 18 36 24 30 21 7 6-4 10-5 6-8 7-40 40-5-2-8-8-11-7-17-12-24-15-21-12-27-15-22-12-28-13-19-8-34-13-36-11-23-5-3-2v389l-1 26-7 6-22 22-13 10h-2l-2-112v-279l1-68h2l-2-6-45-6-25-2-4-1v492l-1 139-2 4-6 2-2 4-8 8h-2l-2 4-13 13-8 7-6 7-8 7-9 9-1 2h-2l-2 4-5 7h2l-2 5-2 3-4-1-12-12-5-4v-2l-4-2-20-20-2-5-2-2h-3v-2l-4-2-2-4 1-1-6-5-4-1-2-4-1-3-2-2-12-14v-77l1-54v-499l-37 3-30 4 1 2-12 2-2 1-1 65v324l1 45 1-63 1-363 2 4 1 10 1 2v352l-1 21v64l-5-2-8-7-15-14-9-9-7-5-1-7-1-134v-193l1-81-15 4-21 5h-7l1 3-7 2-30 8-5 2v3l-4 1-11 3-12 4-25 11-24 12 1 2-12 6-7 5-4-1-2 3-7 3-9 6-5 2-12 7-11 8-9 7-4 2-10 6-13 9-5 3-5 7-4 1-2-1v-3l-4-1-4-5-8-7-4-4v-2l-4-2-7-8-5-4-3-4v-2l-5-2-6-4v-3h-2l1-3-1-10-1-2 3-3 4 1v-2h4v-2l4-1v-5l11-4 4-2 2-5 6-3 3-3 1 1 1-2 7-1 2-6h3l6-3 6-1v-6h2v-2l6 1-1-4 3-1v2l6-3h4l1-4 3-1 4-4 1 3h3l-1-5 4-1v2l4-1-1-5h3l-1 2 5 1v-4h3v-3h7l3-5h2v2l2-1 1-5 3-1v4h3l3-3-1-3 8-3 7-2 1-2h3v2l7-3-3-4 7-2 5-2 2 1 4-4 5 1 5-2h7l-10-2v-2l7-1 4-2v2h2l1-3 11-2 7-1 5 1-1-3-11-1 3-2 11-2 6-2 7-1 15-3h6l1-2h-8l-2-2 11-3h2l12-3 8-1 5-1 14-2h-13v-2l32-7 40-8 22-5 36-4 19-1-6-1v-1l17-2 2-3 1-6h3v-8l2-7h2l1 7 2-8 2-1 3-12h4l-3-4 1-5 3-1 1 6-1 2h3l-1-9h3v-7l2-6 4 1-3-6-1-4h5l2 6v-8h3v-7l2-6 4 1-2-5v-4h4l-1 5h3l-1-9 4 1-1-7 2-4 1-3 2 2 3-6 2-7h2l1-7h3l2-5 3-6 2-6h2l1-7zm-45 98m-10 15m-37 52m6 0m-180 39m-36 12m463 42-1 115v318l1 5h1l2-64 1-62v-240l-1-51v-20zm-600 20m194 2m-42 16m-90 41-1 2 3-1zm538 362v18l2-4-1-14zm-224 200m1 1 2 2v-2zm10 9m1 2m1 1m15 11 2 2v-2zm-3 1m3 3 2 2v-2zm5 0-1 2h2zm1 2 1 3 6 5 7 8 10 12 7 6h2l1-3h-3l-1-3-8-7-2-3h-2l-2-4-13-13z" fill="#4ABFDE"/>
<path transform="translate(790,1130)" d="m0 0 10 5 9 10 8 7 5 5h1l-9-9v-2l-4-2-5-5-2-4 2-1 6 5 3 5 8 7 16 17 33 33 3 5 1 132v416l1 86 35-4 32-3 5-1 1-7-1-59v-339l1-61 5 2 1 4 4 1 16 14 9 8 10 10 1 19v394l17-4 8-1v-3l19-5 16-3h2l2-4h2v3l6-1 1-2-5-1 4-2 8-1 1-1 9-3h7v-3l7-6h2v2h2v-3h4l4-2 6 1 2-4 9 1 1-2-8-1v-2l5-1 5 1 1-3 9-1 2-4 5 1 4 1-2-8h2v2h2l3-3 2 1v-2h6l2-4 6-2v4h3l-2-5v-3l5 1 1-3 5-2 5 1 1-3h4l-3-3 1-3h3l1 4 2 1-2-6 4-2v2h2l1-4 2 1 1-2h2v2h2v-3h4l-1-5h5l4-2h4l1-5 2 2 1-2h4l3-2-4-1 1-4 4 1v-2l8-1 1-2h3l-1-6 4-1 2 1 1-2 5-1 1 1 2-7-1-3 9-1 3 2-2 7h4l2-3 1 4 7 2 1 4 1 5 3-3 1 4 5 2v2l3 1v3h3l1 4 6 4v3l5 1v3l7 4 1 7v3l2 6h-2l2 5-2-1-2 3-10 1-1 6-4 2-1 2-8-1v5h-2v-2l-2 2 2 3-4 1-3-2 3 4-5 2-3 2-8 1-2 4-5 1 1 3-4 1-4 2-11 6-9 6-26 14-9 5v2l-13 4-5 3h-2v2l-4 2-2 2-12 4-10 5v2l-13 4-11 5-5 2-8 4-23 8 7-1-3 2-9 4h-8l-17 5-8 1h4l10-2 7-1-4 3-7 2-4 1-17 5-15 2-9 2 15-2-2 2-18 4-7 2h-7l-47 10-36 6-46 6-4 10-10 19-17 32-9 19-6 12-5 11-5 13-1-2-5 2-2 8h-42l-10-18-11-20-7-15-8-16-6-11-7-12-7-14-9-17-35-5-56-9-27-6-27-7-28-9-37-12-19-7-25-10-29-13-16-8-23-12-12-6-19-10-16-9-16-10-18-11-14-9-15-10-2-1v-2l-4-1-9-7-1-5 3-7-3-1 3-6 5-2h7l-2-9 6-3v-2l6 1v-2l2-1-1-6 5-1 1-3 4 1 3-3 1-9 5-2 2 2 6-4v-4h6l4 3 1 5 4 2 9 5 5 4v2l5 2 14 9 13 8 6 3 13 8 36 20 17 9 18 8 31 13 20 8 28 10 27 8 23 6-1-115v-242l1-57 1-2 8-4 9-10 11-11 7-5h2l1 61v285l2 55v-317l-1-62v-27l5-2 1 96v265l-2 51-1 53 43 6 24 3h8v-44l2-81v-500l1-10h8l3 1v-4l-7 1-3-1v-5l5-1 3 2 1-3h3l2-3-2-6 3-2h3l1 7-3 1v2l4-1 2 1-2-11 5-1-1-8 3-2h3l1 10h3v-3l-2-1v-7h2l1 2 2-4-1-8 5-1 1 5 2 4 2 1-3-5 1-6h2v2l3-3-1-9 3-1 3 2 1 5 3 3-3-6v-4h4l2-3h2l-2-4 1-4 4-1 3 8-1-8h4l3-1-1-3zm35 30 2 4 3 4h2l-2-4zm7 8m1 1m1 1 1 2zm2 2m1 1 1 3v-3zm2 3m1 1m1 1 1 3 2-1zm3 3v2l2-1zm2 2m1 1m1 1m1 1m1 1m1 1m1 1 1 3 2-1zm3 3m1 1m1 1m1 1m-134 2 1 2zm138 1m2 2m1 1m89 171m1 1-1 1-1 13-1 90v353h3l1-32 1-55v-285l-1-85zm315 314v4l3 1-2-5zm32 29 1 2 1-2zm-81 7 1 2zm-23 16m-20 10m128 14m-15 6 1 2zm-193 16v3l5-1-1-2zm-464 14m406 10-15 1-2 2 2 1h6l1-1h8l2-1v-2zm164 16m-48 24m-61 25m-3 1-1 2 3-1z" fill="#4ABFDE"/>
<path transform="translate(1486,512)" d="m0 0 5 1 8 7 13 18 7 10 14 21 12 19 21 35 9 19 13 26 6 15 5 13 1 1v708h-3l-4 11-6 12-1 5-3 6-2 3-4 12-4 9h-2v-3l-4 12-7 14-2-2-4 10-3 6-3 1-10 19-5 6-5 10-4 4-7 11-6 9-4 5-12 16-4 6-5-2-11-13-23-23-8-7-7-6-6-5 2-4 4-6 1-7 2-2h3l2-6 3-6 6-3 3-7 3-5h2l-1-8 3-1v6h2l1-9 2-3 2-8 2-1 1 2v-6h3v5h2v-10l4 1 1-13 3-2 2 3 1-4 2-2v-3l2-2 1-6h2l-1-9h4l2 8v-3-7l4 1-2-5h3l-1-7 1-2 4 1-4-8v-2l4-1 2 3 1 5 2 1-2-4v-6l4 1-1-4v-3l2-7h2l-2-10 3-1 4 4v4l3-12 1-2-3-1v-2h4v-14l2-2 2 1v-4l5 1v-5l2-2 1-12 1-3h3l1-3h2l1-6h-2l-1 5h-3l-1-3 3-5 2-2 4 1v-7l2-5 2-23 1-10 1-4h-167l-240-1v-2h-2v-2l410-1 5-1-8-1-409-1-4-2-9-11-9-9v-2l-5-2-9-8v-2l4-1 24-1 438-1 2-27 3-31 1-6h1l1-11-269-1h-205l-161-1-3-2v-2l-4-2-8-8v-2l-4-2-24-24-1-2-5-5v-2l-5-2-1-4h-3l-10-9-6-7-1-6 1-9 10-10 5-6 6-2 2-6 4-5 7-1v-6l4-5h3l-1 5-2 3h2l2-9 9-3 3-5 3-4v-6l7-6 4-1 1 1 2-8 2-2 223-1h413l-4-32-4-26-1-15-42-1-419-1-3-1 1-4 9-8 5-4 7-8 10-11 3-3h418l-1-2h-356l-59-1v-2l36-1 173-1h143l62 1-4-17-8-26-10-28-18-45-5-11-6-14-8-16-9-15-7-14-10-17-7-10-5-10-11-16-10-14-10-15-4-7 1-5 8-6h2l2-5 10-9 7-8 19-19zm-538 458v1l93 1h544v-2zm639 0v2h2v-2zm-643 7m-2 1-4 5v2l4-2 2-5zm-5 7m-31 28-1 5 2-2zm-2 5m-10 8m-13 30 1 2zm1 2m2 2m1 1m1 1m1 1m1 1m1 1 2 2v-2zm2 2m1 1m1 1m1 1m11 11m1 1m10 10m1 1m1 1m3 3m7 7m1 1m1 1m2 3m449 19v1h70v-1zm114 0v1h49v-1zm80 0m2 0m3 0m4 0m-23 121m-18 2m3 0m15 6m2 2m-2 1v8l2-1v-7zm-1 8 1 3zm-1 8m-21 63-1 4 2-1zm-49 106m87 4 1 2zm-1 2-2 1v2l3-1zm-3 3 1 3zm-12 23 1 2zm-1 2 1 3z" fill="#4ABFDE"/>
<path transform="translate(96,512)" d="m0 0 5 1 7 6 7 8 31 31 8 6 2 4-8 14-6 8-6 9-8 11-7 11-9 15-10 16-10 18-7 14-10 19-16 37-14 35-9 27-7 25-5 16 376 1 35 1 6 2v1h-344l-74-1v3h67l350 1 4 2 7 11 5 4 6 7 10 7 2 6-1 1-462 1-4 43-2 31h550l64 1 16 1 4 2v2h2l4 6 5 5 13 12v2h2l5 5 13 14 5 5 11 10 7 8 5 4 2 5-7 6-5 7 8-9 4-1-1 5-7 8-14 15-34 34h-2l-2 4-11 11-6 4h-399l-180 1h-52l4 61v14l452 1 12 1-1 5-7 7-4 1-2 4-6 7-5 5-6 8-421 1 1 2 415 1-2 4h-409l6 28 8 28 11 30 2 1 7 20 3 4 7 20 11 23 8 16 8 14 4 5 6 12 7 10 8 14 7 11 7 10 8 11 7 10 5 9-2 4-10 8-3 4h-2l-1 3-7 6-5 6-8 7-10 10-7 9-4 1-9-12-13-18-13-19v-2h-2l-7-12-7-10-20-34-12-23-8-18-6-14v-761l3 4 5-18 3-5 3-3 5-13 3-7 4-1 2-6 6-12 6-11h2l1-4 3-4 1-7 3-1 3-5 11-16 8-13 14-19 6-8zm-48 66m-45 392v1l11 1h509l52-1v-1zm696 90-6 6 1 3 5-5 1-4zm-7 8-1 2h2zm-2 2-21 21-1 3 4-2 9-8 4-5 8-7zm-23 24-10 9h3l5-3 3-3zm-11 10m-1 1m-1 1m-1 1m-1 1m2 0m-3 1m-1 1m-1 1-4 4 1 2 3-3 3-2zm3 0m-8 6m-1 1m-1 1-1 2 3-1zm-2 4-2 2 4-1zm-3 2m-2 1v3l2-3zm-602 1v1h18v-1zm47 1v1h77v-1zm-57 123 1 11 2 2-1-11z" fill="#4ABFDE"/>
<path transform="translate(870,892)" d="m0 0h3l-2 4-36 36-6 7-5 5-5 4-5 6h-2l-1 3-7 6-2-1 3-5h2v-2h2v-2h2l2-4 15-14 17-17 9-10h2l1-3h2l2-4h2l2-4z" fill="#4ABFDE"/>
<path transform="translate(500,308)" d="m0 0 2 1-13 6-6 1-4 3-25 10-15 7-3-1 16-8 20-9 8-3 7-3z" fill="#4ABFDE"/>
<path transform="translate(1261,1795)" d="m0 0 2 1-6 5-9 5-13 8-6 2v-3l10-5 7-3 5-4z" fill="#4ABFDE"/>
<path transform="translate(928,987)" d="m0 0h5l-1 2h-2l-2 5-3 3h-2v-5z" fill="#4ABFDE"/>
<path transform="translate(818,2041)" d="m0 0h4l-1 7h-4l-1-3z" fill="#4ABFDE"/>
<path transform="translate(763,2036)" d="m0 0 4 4 3 6v2l-4-1-3-8z" fill="#4ABFDE"/>
<path transform="translate(509,1883)" d="m0 0 8 1 12 4-4 1-13-4h-5z" fill="#4ABFDE"/>
<path transform="translate(792,1123)" d="m0 0 6 3-1 3-7-2z" fill="#4ABFDE"/>
<path transform="translate(1020,286)" d="m0 0 8 1 12 4-3 1-17-5z" fill="#4ABFDE"/>
<path transform="translate(326,1796)" d="m0 0 6 2 7 5-1 2-8-5z" fill="#4ABFDE"/>
<path transform="translate(342,1805)" d="m0 0 11 6-2 2-9-6z" fill="#4ABFDE"/>
<path transform="translate(26,612)" d="m0 0 2 1v2l-2 1-1 4h-2l1-5z" fill="#4ABFDE"/>
<path transform="translate(715,894)" d="m0 0 4 2 4 4-1 2-7-7z" fill="#4ABFDE"/>
<path transform="translate(524,299)" d="m0 0h2v2l-7 2-2-2z" fill="#4ABFDE"/>
<path transform="translate(370,1821)" d="m0 0 5 2 2 2-3 1-4-3z" fill="#4ABFDE"/>
<path transform="translate(479,1872)" d="m0 0 9 2 2 2-9-2z" fill="#4ABFDE"/>
<path transform="translate(362,1817)" d="m0 0 5 2 2 2-2 1z" fill="#4ABFDE"/>
<path transform="translate(14,1195)" d="m0 0h2v6h-2z" fill="#4ABFDE"/>
<path transform="translate(419,1846)" d="m0 0 6 2 2 2-5-1z" fill="#4ABFDE"/>
<path transform="translate(1220,1820)" d="m0 0 2 1-5 3-2-1z" fill="#4ABFDE"/>
<path transform="translate(353,1812)" d="m0 0 5 2 2 2-4-1z" fill="#4ABFDE"/>
<path transform="translate(1598,1407)" d="m0 0h2v4h-3z" fill="#4ABFDE"/>
<path transform="translate(255,1746)" d="m0 0h2v4l-3-1z" fill="#4ABFDE"/>
<path transform="translate(1170,1745)" d="m0 0h2l-1 4-2-1z" fill="#4ABFDE"/>
<path transform="translate(1520,1356)" d="m0 0h5v2l-5-1z" fill="#4ABFDE"/>
<path transform="translate(766,52)" d="m0 0h2l-2 5-1-3z" fill="#4ABFDE"/>
<path transform="translate(544,1894)" d="m0 0 7 1-4 1z" fill="#4ABFDE"/>
<path transform="translate(1210,1825)" d="m0 0 3 1-6 2z" fill="#4ABFDE"/>
<path transform="translate(377,1825)" d="m0 0 4 1 2 2-4-1z" fill="#4ABFDE"/>
<path transform="translate(1328,1741)" d="m0 0 3 3-1 2-2-2z" fill="#4ABFDE"/>
<path transform="translate(1525,1362)" d="m0 0 2 1-1 4z" fill="#4ABFDE"/>
<path transform="translate(1535,1331)" d="m0 0h2v3l-3 1z" fill="#4ABFDE"/>
<path transform="translate(512,301)" d="m0 0 3 1-1 1h-5z" fill="#4ABFDE"/>
<path transform="translate(1280,1783)" d="m0 0 3 1-1 2h-2z" fill="#4ABFDE"/>
<path transform="translate(1229,1709)" d="m0 0h3l-1 3-2-1z" fill="#4ABFDE"/>
<path transform="translate(1473,1452)" d="m0 0 3 1v2h-3z" fill="#4ABFDE"/>
<path transform="translate(1486,1428)" d="m0 0 3 1-1 2h-2z" fill="#4ABFDE"/>
<path transform="translate(530,297)" d="m0 0 2 1-5 2z" fill="#4ABFDE"/>
<path transform="translate(474,1870)" d="m0 0 5 1-3 1z" fill="#4ABFDE"/>
<path transform="translate(1136,1860)" d="m0 0 3 2-4 1z" fill="#4ABFDE"/>
<path transform="translate(1147,1758)" d="m0 0h2l-1 3-2-2z" fill="#4ABFDE"/>
<path transform="translate(1538,1329)" d="m0 0 3 1-1 2-2-1z" fill="#4ABFDE"/>
<path transform="translate(1550,1295)" d="m0 0 2 2-2 1-2-2z" fill="#4ABFDE"/>
<path transform="translate(12,637)" d="m0 0 1 3-2 1z" fill="#4ABFDE"/>
<path transform="translate(454,1862)" d="m0 0 4 1-2 1z" fill="#4ABFDE"/>
<path transform="translate(427,1850)" d="m0 0 4 1-2 1z" fill="#4ABFDE"/>
<path transform="translate(402,1838)" d="m0 0 4 1-2 1z" fill="#4ABFDE"/>
<path transform="translate(1223,1818)" d="m0 0 3 1-4 1z" fill="#4ABFDE"/>
<path transform="translate(1275,1786)" d="m0 0v3l-2-1z" fill="#4ABFDE"/>
<path transform="translate(1330,1749)" d="m0 0h3v2l-3-1z" fill="#4ABFDE"/>
<path transform="translate(1487,1433)" d="m0 0 2 1-1 3z" fill="#4ABFDE"/>
<path transform="translate(732,911)" d="m0 0 3 3-3-1z" fill="#4ABFDE"/>
<path transform="translate(891,172)" d="m0 0h5v1h-5z" fill="#4ABFDE"/>
<path transform="translate(761,2033)" d="m0 0 2 1-1 2z" fill="#4ABFDE"/>
<path transform="translate(554,1897)" d="m0 0 4 1z" fill="#4ABFDE"/>
<path transform="translate(532,1890)" d="m0 0 4 1z" fill="#4ABFDE"/>
<path transform="translate(1191,1835)" d="m0 0 2 1h-3z" fill="#4ABFDE"/>
<path transform="translate(395,1834)" d="m0 0 3 1h-3z" fill="#4ABFDE"/>
<path transform="translate(323,1794)" d="m0 0 3 1h-3z" fill="#4ABFDE"/>
<path transform="translate(1330,1734)" d="m0 0h2v2h-2z" fill="#4ABFDE"/>
<path transform="translate(1281,1685)" d="m0 0h2v2h-2z" fill="#4ABFDE"/>
<path transform="translate(1538,1520)" d="m0 0v3z" fill="#4ABFDE"/>
<path transform="translate(478,1211)" d="m0 0v3z" fill="#4ABFDE"/>
<path transform="translate(478,883)" d="m0 0 2 1-1 2z" fill="#4ABFDE"/>
<path transform="translate(1066,301)" d="m0 0 4 1z" fill="#4ABFDE"/>
<path transform="translate(636,272)" d="m0 0 1 4z" fill="#4ABFDE"/>
<path transform="translate(506,211)" d="m0 0 2 1h-3z" fill="#4ABFDE"/>
<path transform="translate(921,1919)" d="m0 0 3 1z" fill="#4ABFDE"/>
<path transform="translate(969,1911)" d="m0 0 3 1z" fill="#4ABFDE"/>
<path transform="translate(973,1910)" d="m0 0 3 1z" fill="#4ABFDE"/>
<path transform="translate(551,1896)" d="m0 0 3 1z" fill="#4ABFDE"/>
<path transform="translate(536,1891)" d="m0 0 3 1z" fill="#4ABFDE"/>
<path transform="translate(501,1880)" d="m0 0 3 1z" fill="#4ABFDE"/>
<path transform="translate(257,1751)" d="m0 0h2l-1 2z" fill="#4ABFDE"/>
<path transform="translate(1293,1697)" d="m0 0h2l-1 2z" fill="#4ABFDE"/>
<path transform="translate(800,963)" d="m0 0 2 1-2 1z" fill="#4ABFDE"/>
<path transform="translate(748,927)" d="m0 0 2 2h-2z" fill="#4ABFDE"/>
<path transform="translate(736,915)" d="m0 0 2 2h-2z" fill="#4ABFDE"/>
<path transform="translate(255,347)" d="m0 0 2 2h-2z" fill="#4ABFDE"/>
<path transform="translate(305,312)" d="m0 0 2 2h-2z" fill="#4ABFDE"/>
<path transform="translate(1070,302)" d="m0 0 3 1z" fill="#4ABFDE"/>
<path transform="translate(545,200)" d="m0 0 3 1z" fill="#4ABFDE"/>
<path transform="translate(905,1921)" d="m0 0 2 1z" fill="#4ABFDE"/>
<path transform="translate(963,1912)" d="m0 0 2 1z" fill="#4ABFDE"/>
<path transform="translate(985,1908)" d="m0 0 2 1z" fill="#4ABFDE"/>
<path transform="translate(559,1898)" d="m0 0 2 1z" fill="#4ABFDE"/>
<path transform="translate(1042,1893)" d="m0 0 2 1z" fill="#4ABFDE"/>
<path transform="translate(539,1892)" d="m0 0 2 1z" fill="#4ABFDE"/>
<path transform="translate(529,1889)" d="m0 0 2 1z" fill="#4ABFDE"/>
<path transform="translate(505,1883)" d="m0 0 2 1z" fill="#4ABFDE"/>
<path transform="translate(507,1882)" d="m0 0 2 1z" fill="#4ABFDE"/>
<path transform="translate(505,1881)" d="m0 0 2 1z" fill="#4ABFDE"/>
<path transform="translate(499,1879)" d="m0 0 2 1z" fill="#4ABFDE"/>
<path transform="translate(496,1878)" d="m0 0 2 1z" fill="#4ABFDE"/>
<path transform="translate(490,1876)" d="m0 0 2 1z" fill="#4ABFDE"/>
<path transform="translate(1112,1870)" d="m0 0 2 1z" fill="#4ABFDE"/>
<path transform="translate(1131,1863)" d="m0 0 2 1z" fill="#4ABFDE"/>
<path transform="translate(451,1861)" d="m0 0 2 1z" fill="#4ABFDE"/>
<path transform="translate(447,1859)" d="m0 0 2 1z" fill="#4ABFDE"/>
<path transform="translate(1147,1857)" d="m0 0 2 1z" fill="#4ABFDE"/>
<path transform="translate(437,1855)" d="m0 0 2 1z" fill="#4ABFDE"/>
<path transform="translate(1153,1854)" d="m0 0 2 1z" fill="#4ABFDE"/>
<path transform="translate(1155,1853)" d="m0 0 2 1z" fill="#4ABFDE"/>
<path transform="translate(431,1852)" d="m0 0 2 1z" fill="#4ABFDE"/>
<path transform="translate(1161,1850)" d="m0 0 2 1z" fill="#4ABFDE"/>
<path transform="translate(418,1848)" d="m0 0 2 1z" fill="#4ABFDE"/>
<path transform="translate(416,1847)" d="m0 0 2 1z" fill="#4ABFDE"/>
<path transform="translate(1172,1845)" d="m0 0 2 1z" fill="#4ABFDE"/>
<path transform="translate(414,1844)" d="m0 0 2 1z" fill="#4ABFDE"/>
<path transform="translate(412,1843)" d="m0 0 2 1z" fill="#4ABFDE"/>
<path transform="translate(1178,1842)" d="m0 0 2 1z" fill="#4ABFDE"/>
<path transform="translate(410,1842)" d="m0 0 2 1z" fill="#4ABFDE"/>
<path transform="translate(1183,1839)" d="m0 0 2 1z" fill="#4ABFDE"/>
<path transform="translate(1185,1838)" d="m0 0 2 1z" fill="#4ABFDE"/>
<path transform="translate(1188,1837)" d="m0 0 2 1z" fill="#4ABFDE"/>
<path transform="translate(400,1837)" d="m0 0 2 1z" fill="#4ABFDE"/>
<path transform="translate(398,1836)" d="m0 0 2 1z" fill="#4ABFDE"/>
<path transform="translate(394,1836)" d="m0 0 2 1z" fill="#4ABFDE"/>
<path transform="translate(1194,1834)" d="m0 0 2 1z" fill="#4ABFDE"/>
<path transform="translate(1196,1833)" d="m0 0 2 1z" fill="#4ABFDE"/>
<path transform="translate(390,1832)" d="m0 0 2 1z" fill="#4ABFDE"/>
<path transform="translate(1199,1831)" d="m0 0 2 1z" fill="#4ABFDE"/>
<path transform="translate(388,1831)" d="m0 0 2 1z" fill="#4ABFDE"/>
<path transform="translate(1201,1830)" d="m0 0 2 1z" fill="#4ABFDE"/>
<path transform="translate(1203,1829)" d="m0 0 2 1z" fill="#4ABFDE"/>
<path transform="translate(1205,1828)" d="m0 0 2 1z" fill="#4ABFDE"/>
<path transform="translate(1213,1824)" d="m0 0 2 1z" fill="#4ABFDE"/>
<path transform="translate(368,1822)" d="m0 0 2 1z" fill="#4ABFDE"/>
<path transform="translate(1226,1817)" d="m0 0 2 1z" fill="#4ABFDE"/>
<path transform="translate(360,1816)" d="m0 0 2 1z" fill="#4ABFDE"/>
<path transform="translate(317,1790)" d="m0 0 2 1z" fill="#4ABFDE"/>
<path transform="translate(315,1789)" d="m0 0 2 1z" fill="#4ABFDE"/>
<path transform="translate(1315,1760)" d="m0 0" fill="#4ABFDE"/>
<path transform="translate(1188,1739)" d="m0 0 2 1z" fill="#4ABFDE"/>
<path transform="translate(256,1736)" d="m0 0" fill="#4ABFDE"/>
<path transform="translate(1547,1504)" d="m0 0" fill="#4ABFDE"/>
<path transform="translate(1450,1493)" d="m0 0 2 1z" fill="#4ABFDE"/>
<path transform="translate(1492,1428)" d="m0 0" fill="#4ABFDE"/>
<path transform="translate(89,1419)" d="m0 0" fill="#4ABFDE"/>
<path transform="translate(88,1417)" d="m0 0" fill="#4ABFDE"/>
<path transform="translate(86,1413)" d="m0 0" fill="#4ABFDE"/>
<path transform="translate(1523,1361)" d="m0 0 2 1z" fill="#4ABFDE"/>
<path transform="translate(50,1334)" d="m0 0" fill="#4ABFDE"/>
<path transform="translate(1599,688)" d="m0 0" fill="#4ABFDE"/>
<path transform="translate(1,661)" d="m0 0" fill="#4ABFDE"/>
<path transform="translate(411,349)" d="m0 0 2 1z" fill="#4ABFDE"/>
<path transform="translate(434,336)" d="m0 0 2 1z" fill="#4ABFDE"/>
<path transform="translate(1120,322)" d="m0 0 2 1z" fill="#4ABFDE"/>
<path transform="translate(1097,313)" d="m0 0 2 1z" fill="#4ABFDE"/>
<path transform="translate(1095,312)" d="m0 0 2 1z" fill="#4ABFDE"/>
<path transform="translate(511,304)" d="m0 0 2 1z" fill="#4ABFDE"/>
<path transform="translate(1064,300)" d="m0 0 2 1z" fill="#4ABFDE"/>
<path transform="translate(1061,299)" d="m0 0 2 1z" fill="#4ABFDE"/>
<path transform="translate(1059,298)" d="m0 0 2 1z" fill="#4ABFDE"/>
<path transform="translate(1041,292)" d="m0 0 2 1z" fill="#4ABFDE"/>
<path transform="translate(370,273)" d="m0 0 2 1z" fill="#4ABFDE"/>
<path transform="translate(658,263)" d="m0 0 2 1z" fill="#4ABFDE"/>
<path transform="translate(394,261)" d="m0 0 2 1z" fill="#4ABFDE"/>
<path transform="translate(417,248)" d="m0 0 2 1z" fill="#4ABFDE"/>
<path transform="translate(778,30)" d="m0 0" fill="#4ABFDE"/>
<path transform="translate(759,2029)" d="m0 0" fill="#4ABFDE"/>
<path transform="translate(755,2021)" d="m0 0" fill="#4ABFDE"/>
<path transform="translate(959,1913)" d="m0 0" fill="#4ABFDE"/>
<path transform="translate(957,1913)" d="m0 0" fill="#4ABFDE"/>
<path transform="translate(991,1907)" d="m0 0" fill="#4ABFDE"/>
<path transform="translate(542,1893)" d="m0 0" fill="#4ABFDE"/>
<path transform="translate(518,1887)" d="m0 0" fill="#4ABFDE"/>
<path transform="translate(514,1886)" d="m0 0" fill="#4ABFDE"/>
<path transform="translate(511,1885)" d="m0 0" fill="#4ABFDE"/>
<path transform="translate(1085,1880)" d="m0 0" fill="#4ABFDE"/>
<path transform="translate(1087,1879)" d="m0 0" fill="#4ABFDE"/>
<path transform="translate(474,1872)" d="m0 0" fill="#4ABFDE"/>
<path transform="translate(1111,1871)" d="m0 0" fill="#4ABFDE"/>
<path transform="translate(1114,1869)" d="m0 0" fill="#4ABFDE"/>
<path transform="translate(472,1869)" d="m0 0" fill="#4ABFDE"/>
<path transform="translate(1120,1868)" d="m0 0" fill="#4ABFDE"/>
<path transform="translate(466,1867)" d="m0 0" fill="#4ABFDE"/>
<path transform="translate(464,1866)" d="m0 0" fill="#4ABFDE"/>
<path transform="translate(459,1864)" d="m0 0" fill="#4ABFDE"/>
<path transform="translate(1131,1861)" d="m0 0" fill="#4ABFDE"/>
<path transform="translate(450,1860)" d="m0 0" fill="#4ABFDE"/>
<path transform="translate(1138,1859)" d="m0 0" fill="#4ABFDE"/>
<path transform="translate(1140,1858)" d="m0 0" fill="#4ABFDE"/>
<path transform="translate(445,1858)" d="m0 0" fill="#4ABFDE"/>
<path transform="translate(443,1857)" d="m0 0" fill="#4ABFDE"/>
<path transform="translate(1149,1856)" d="m0 0" fill="#4ABFDE"/>
<path transform="translate(436,1854)" d="m0 0" fill="#4ABFDE"/>
<path transform="translate(1157,1852)" d="m0 0" fill="#4ABFDE"/>
<path transform="translate(1159,1851)" d="m0 0" fill="#4ABFDE"/>
<path transform="translate(426,1851)" d="m0 0" fill="#4ABFDE"/>
<path transform="translate(423,1850)" d="m0 0" fill="#4ABFDE"/>
<path transform="translate(1164,1849)" d="m0 0" fill="#4ABFDE"/>
<path transform="translate(421,1849)" d="m0 0" fill="#4ABFDE"/>
<path transform="translate(1166,1848)" d="m0 0" fill="#4ABFDE"/>
<path transform="translate(1168,1847)" d="m0 0" fill="#4ABFDE"/>
<path transform="translate(1171,1846)" d="m0 0" fill="#4ABFDE"/>
<path transform="translate(417,1845)" d="m0 0" fill="#4ABFDE"/>
<path transform="translate(1180,1841)" d="m0 0" fill="#4ABFDE"/>
<path transform="translate(1182,1840)" d="m0 0" fill="#4ABFDE"/>
<path transform="translate(407,1840)" d="m0 0" fill="#4ABFDE"/>
<path transform="translate(397,1837)" d="m0 0" fill="#4ABFDE"/>
<path transform="translate(393,1835)" d="m0 0" fill="#4ABFDE"/>
<path transform="translate(393,1833)" d="m0 0" fill="#4ABFDE"/>
<path transform="translate(1198,1832)" d="m0 0" fill="#4ABFDE"/>
<path transform="translate(387,1832)" d="m0 0" fill="#4ABFDE"/>
<path transform="translate(387,1830)" d="m0 0" fill="#4ABFDE"/>
<path transform="translate(385,1829)" d="m0 0" fill="#4ABFDE"/>
<path transform="translate(383,1828)" d="m0 0" fill="#4ABFDE"/>
<path transform="translate(378,1827)" d="m0 0" fill="#4ABFDE"/>
<path transform="translate(1228,1816)" d="m0 0" fill="#4ABFDE"/>
<path transform="translate(1062,1797)" d="m0 0" fill="#4ABFDE"/>
<path transform="translate(322,1793)" d="m0 0" fill="#4ABFDE"/>
<path transform="translate(320,1792)" d="m0 0" fill="#4ABFDE"/>
<path transform="translate(319,1791)" d="m0 0" fill="#4ABFDE"/>
<path transform="translate(314,1788)" d="m0 0" fill="#4ABFDE"/>
<path transform="translate(312,1787)" d="m0 0" fill="#4ABFDE"/>
<path transform="translate(311,1786)" d="m0 0" fill="#4ABFDE"/>
<path transform="translate(310,1785)" d="m0 0" fill="#4ABFDE"/>
<path transform="translate(1127,1769)" d="m0 0" fill="#4ABFDE"/>
<path transform="translate(258,1745)" d="m0 0" fill="#4ABFDE"/>
<path transform="translate(257,1735)" d="m0 0" fill="#4ABFDE"/>
<path transform="translate(1329,1733)" d="m0 0" fill="#4ABFDE"/>
<path transform="translate(1316,1721)" d="m0 0" fill="#4ABFDE"/>
<path transform="translate(1305,1709)" d="m0 0" fill="#4ABFDE"/>
<path transform="translate(1524,1539)" d="m0 0" fill="#4ABFDE"/>
<path transform="translate(1548,1503)" d="m0 0" fill="#4ABFDE"/>
<path transform="translate(1499,1405)" d="m0 0" fill="#4ABFDE"/>
<path transform="translate(1509,1382)" d="m0 0" fill="#4ABFDE"/>
<path transform="translate(629,1368)" d="m0 0" fill="#4ABFDE"/>
<path transform="translate(1528,1353)" d="m0 0" fill="#4ABFDE"/>
<path transform="translate(51,1337)" d="m0 0" fill="#4ABFDE"/>
<path transform="translate(1532,1333)" d="m0 0" fill="#4ABFDE"/>
<path transform="translate(1546,1313)" d="m0 0" fill="#4ABFDE"/>
<path transform="translate(1547,1297)" d="m0 0" fill="#4ABFDE"/>
<path transform="translate(1552,1292)" d="m0 0" fill="#4ABFDE"/>
<path transform="translate(440,1250)" d="m0 0" fill="#4ABFDE"/>
<path transform="translate(479,1210)" d="m0 0" fill="#4ABFDE"/>
<path transform="translate(14,1187)" d="m0 0" fill="#4ABFDE"/>
<path transform="translate(907,1085)" d="m0 0" fill="#4ABFDE"/>
<path transform="translate(901,1079)" d="m0 0" fill="#4ABFDE"/>
<path transform="translate(900,1078)" d="m0 0" fill="#4ABFDE"/>
<path transform="translate(899,1077)" d="m0 0" fill="#4ABFDE"/>
<path transform="translate(896,1074)" d="m0 0" fill="#4ABFDE"/>
<path transform="translate(895,1073)" d="m0 0" fill="#4ABFDE"/>
<path transform="translate(747,926)" d="m0 0" fill="#4ABFDE"/>
<path transform="translate(735,914)" d="m0 0" fill="#4ABFDE"/>
<path transform="translate(726,905)" d="m0 0" fill="#4ABFDE"/>
<path transform="translate(725,904)" d="m0 0" fill="#4ABFDE"/>
<path transform="translate(724,903)" d="m0 0" fill="#4ABFDE"/>
<path transform="translate(723,902)" d="m0 0" fill="#4ABFDE"/>
<path transform="translate(14,637)" d="m0 0" fill="#4ABFDE"/>
<path transform="translate(389,361)" d="m0 0" fill="#4ABFDE"/>
<path transform="translate(260,348)" d="m0 0" fill="#4ABFDE"/>
<path transform="translate(1129,326)" d="m0 0" fill="#4ABFDE"/>
<path transform="translate(1127,325)" d="m0 0" fill="#4ABFDE"/>
<path transform="translate(1124,324)" d="m0 0" fill="#4ABFDE"/>
<path transform="translate(1122,323)" d="m0 0" fill="#4ABFDE"/>
<path transform="translate(1118,321)" d="m0 0" fill="#4ABFDE"/>
<path transform="translate(1100,314)" d="m0 0" fill="#4ABFDE"/>
<path transform="translate(1093,311)" d="m0 0" fill="#4ABFDE"/>
<path transform="translate(1091,310)" d="m0 0" fill="#4ABFDE"/>
<path transform="translate(1076,304)" d="m0 0" fill="#4ABFDE"/>
<path transform="translate(1073,303)" d="m0 0" fill="#4ABFDE"/>
<path transform="translate(515,303)" d="m0 0" fill="#4ABFDE"/>
<path transform="translate(342,289)" d="m0 0" fill="#4ABFDE"/>
<path transform="translate(558,288)" d="m0 0" fill="#4ABFDE"/>
<path transform="translate(346,285)" d="m0 0" fill="#4ABFDE"/>
<path transform="translate(368,273)" d="m0 0" fill="#4ABFDE"/>
<path transform="translate(372,272)" d="m0 0" fill="#4ABFDE"/>
<path transform="translate(380,270)" d="m0 0" fill="#4ABFDE"/>
<path transform="translate(421,251)" d="m0 0" fill="#4ABFDE"/>
<path transform="translate(414,250)" d="m0 0" fill="#4ABFDE"/>
<path transform="translate(415,249)" d="m0 0" fill="#4ABFDE"/>
<path transform="translate(707,167)" d="m0 0" fill="#4ABFDE"/>
<path transform="translate(730,114)" d="m0 0" fill="#4ABFDE"/>
<path transform="translate(731,113)" d="m0 0" fill="#4ABFDE"/>
<path transform="translate(743,90)" d="m0 0" fill="#4ABFDE"/>
<path transform="translate(779,29)" d="m0 0" fill="#4ABFDE"/>
</svg>
